<?xml version="1.0" standalone="no"?>
<!DOCTYPE svg PUBLIC "-//W3C//DTD SVG 20010904//EN"
 "http://www.w3.org/TR/2001/REC-SVG-20010904/DTD/svg10.dtd">
<svg version="1.0" xmlns="http://www.w3.org/2000/svg"
 width="600.000000pt" height="600.000000pt" viewBox="0 0 600.000000 600.000000"
 preserveAspectRatio="xMidYMid meet">
<metadata>
Created by potrace 1.11, written by Peter Selinger 2001-2013
</metadata>
<g transform="translate(0.000000,600.000000) scale(0.100000,-0.100000)"
fill="#000000" stroke="none">
<path d="M2690 5989 c-503 -52 -1023 -248 -1432 -542 -208 -149 -449 -376
-601 -567 -331 -414 -541 -891 -628 -1425 -27 -167 -37 -575 -19 -751 92 -906
573 -1704 1330 -2209 395 -263 827 -422 1310 -481 211 -25 644 -16 841 19 446
79 806 221 1171 463 744 493 1227 1288 1328 2189 15 135 12 510 -5 655 -81
691 -367 1283 -859 1776 -218 218 -403 361 -653 503 -346 197 -773 330 -1182
371 -121 12 -479 11 -601 -1z m-1188 -2231 l3 -503 510 502 510 502 383 1 382
0 0 -455 0 -455 555 0 555 0 0 450 0 450 275 0 275 0 0 -1106 c0 -840 -3
-1117 -12 -1148 -8 -26 -31 -60 -64 -93 -71 -72 -114 -83 -316 -83 l-158 0 0
540 0 540 -545 0 -545 0 0 -540 0 -540 -337 2 -337 3 -343 440 c-188 242 -368
464 -399 492 -73 67 -134 97 -199 97 -62 0 -137 -34 -167 -77 -23 -32 -23 -33
-26 -494 l-3 -463 -279 0 -280 0 0 1103 c0 1236 -4 1173 70 1247 75 75 120 87
342 89 l148 1 2 -502z"/>
<path d="M2437 3541 c-265 -243 -296 -275 -284 -290 8 -9 142 -175 298 -370
l284 -354 3 321 c1 177 1 467 0 644 l-3 322 -298 -273z"/>
</g>
</svg>
